<svg width="24" height="32" viewBox="0 0 24 32" fill="none" xmlns="http://www.w3.org/2000/svg">
<path d="M17.0149 0H0.816558C0.365581 0 0 0.374286 0 1.10057V31.4286C0 31.6257 0.365581 32 0.816558 32H23.1834C23.6344 32 24 31.6257 24 31.4286V7.416C24 7.01829 23.9481 6.89029 23.8566 6.796L17.362 0.146857C17.27 0.0531429 17.1449 0 17.0149 0Z" fill="#E9E9E0"/>
<path d="M17.3023 0.0863037V6.85716H23.9157L17.3023 0.0863037Z" fill="#D9D7CA"/>
<path d="M7.26367 19.0423C7.06943 19.0423 6.88302 18.9777 6.72395 18.856C6.14292 18.4097 6.06478 17.9132 6.10162 17.5749C6.2032 16.6446 7.32674 15.6709 9.44208 14.6789C10.2815 12.7954 11.0802 10.4749 11.5563 8.53602C10.9993 7.29488 10.4579 5.68459 10.8525 4.74002C10.9909 4.40916 11.1634 4.15545 11.4854 4.04573C11.6127 4.00231 11.9342 3.94745 12.0525 3.94745C12.3338 3.94745 12.5811 4.31831 12.7563 4.54688C12.921 4.76173 13.2944 5.21716 12.5481 8.43373C13.3005 10.0246 14.3666 11.6452 15.3879 12.7549C16.1197 12.6194 16.7492 12.5503 17.2622 12.5503C18.1362 12.5503 18.6659 12.7589 18.8819 13.1886C19.0605 13.544 18.9874 13.9595 18.6642 14.4229C18.3533 14.868 17.9247 15.1034 17.4252 15.1034C16.7465 15.1034 15.9561 14.6646 15.0748 13.7977C13.4914 14.1366 11.6423 14.7412 10.1476 15.4103C9.68097 16.424 9.2339 17.2406 8.81753 17.8395C8.24543 18.6595 7.75204 19.0423 7.26367 19.0423ZM8.74943 16.1132C7.55669 16.7995 7.07055 17.3635 7.03539 17.6812C7.02981 17.7337 7.01474 17.872 7.27594 18.0766C7.35911 18.0497 7.84469 17.8229 8.74943 16.1132ZM16.3608 13.5749C16.8157 13.9332 16.9267 14.1143 17.2242 14.1143C17.3548 14.1143 17.7271 14.1086 17.8996 13.8623C17.9827 13.7429 18.0151 13.6663 18.0279 13.6252C17.9593 13.588 17.8683 13.5126 17.3721 13.5126C17.0903 13.5132 16.7359 13.5257 16.3608 13.5749ZM12.1915 9.81374C11.7924 11.2274 11.2655 12.7537 10.699 14.136C11.8655 13.6726 13.1336 13.268 14.3247 12.9817C13.5712 12.0857 12.8183 10.9669 12.1915 9.81374ZM11.8527 4.97831C11.798 4.99716 11.1104 5.98231 11.9063 6.81602C12.4359 5.60745 11.8767 4.97031 11.8527 4.97831Z" fill="#CC4B4C"/>
<path d="M23.1834 32H0.816558C0.365581 32 0 31.6257 0 31.164V22.2857H24V31.164C24 31.6257 23.6344 32 23.1834 32Z" fill="#CC4B4C"/>
<path d="M6.0753 30.2857H5.15939V24.528H6.77688C7.01577 24.528 7.25242 24.5669 7.48628 24.6451C7.72014 24.7234 7.93 24.8406 8.11586 24.9966C8.30172 25.1526 8.45186 25.3417 8.56628 25.5628C8.6807 25.784 8.73818 26.0326 8.73818 26.3091C8.73818 26.6011 8.68963 26.8651 8.59307 27.1023C8.49651 27.3394 8.36144 27.5388 8.18842 27.7C8.01539 27.8611 7.80665 27.9863 7.56274 28.0748C7.31883 28.1634 7.0487 28.2074 6.754 28.2074H6.07474V30.2857H6.0753ZM6.0753 25.2388V27.52H6.91474C7.02637 27.52 7.13688 27.5006 7.24683 27.4611C7.35623 27.4223 7.4567 27.3583 7.54823 27.2697C7.63977 27.1811 7.71344 27.0577 7.76925 26.8988C7.82507 26.74 7.85297 26.5434 7.85297 26.3091C7.85297 26.2154 7.84014 26.1068 7.81502 25.9851C7.78935 25.8628 7.73744 25.7457 7.65874 25.6337C7.57949 25.5217 7.46898 25.428 7.32665 25.3526C7.18432 25.2771 6.99567 25.2394 6.76181 25.2394H6.0753V25.2388Z" fill="white"/>
<path d="M14.3547 27.2468C14.3547 27.7206 14.3051 28.1257 14.2057 28.4617C14.1064 28.7977 13.9808 29.0788 13.8279 29.3057C13.6749 29.5326 13.5036 29.7108 13.3127 29.8411C13.1218 29.9714 12.9376 30.0686 12.7596 30.1343C12.5815 30.1994 12.4186 30.2411 12.2712 30.2594C12.1239 30.2766 12.0145 30.2857 11.943 30.2857H9.81427V24.528H11.5082C11.9815 24.528 12.3973 24.6051 12.7557 24.7583C13.114 24.9114 13.412 25.1166 13.6487 25.3714C13.8853 25.6263 14.0617 25.9171 14.1789 26.2423C14.2961 26.568 14.3547 26.9028 14.3547 27.2468ZM11.6383 29.5983C12.2589 29.5983 12.7066 29.3954 12.9812 28.9891C13.2558 28.5828 13.3931 27.9943 13.3931 27.2234C13.3931 26.984 13.3652 26.7468 13.3093 26.5126C13.253 26.2783 13.1452 26.0663 12.9851 25.876C12.8249 25.6857 12.6072 25.532 12.3326 25.4148C12.058 25.2977 11.7019 25.2388 11.2643 25.2388H10.7302V29.5983H11.6383Z" fill="white"/>
<path d="M16.6136 25.2388V27.0514H18.9639V27.692H16.6136V30.2857H15.6826V24.528H19.2V25.2388H16.6136Z" fill="white"/>
</svg>
